<?xml version="1.0" encoding="UTF-8" standalone="no"?>
<!DOCTYPE svg PUBLIC "-//W3C//DTD SVG 1.1//EN" "http://www.w3.org/Graphics/SVG/1.1/DTD/svg11.dtd">
<svg width="100%" height="100%" viewBox="0 0 512 512" version="1.1" xmlns="http://www.w3.org/2000/svg" xmlns:xlink="http://www.w3.org/1999/xlink" xml:space="preserve" xmlns:serif="http://www.serif.com/" style="fill-rule:evenodd;clip-rule:evenodd;stroke-linejoin:round;stroke-miterlimit:2;">
    <rect x="-0.856" y="0.134" width="571.093" height="512.203" style="fill:white;"/>
    <g transform="matrix(0.841861,0,0,0.811162,45.3452,46.5556)">
        <path d="M264.25,10.255C262.208,7.716 259.186,6.249 256,6.249C252.814,6.249 249.792,7.716 247.75,10.255C243.134,15.991 238.3,22 238.3,22L147.7,135.3C147.7,135.3 146.143,137.293 144.767,139.054C143.43,140.766 142.7,142.903 142.7,145.106C142.7,162.191 142.7,238.974 142.7,270.463C142.7,278.865 138.465,286.655 131.534,290.998C106.944,306.412 48.524,343.029 26.191,357.027C23.863,358.486 22.207,360.865 21.604,363.617C21,366.369 21.5,369.258 22.99,371.619C27.842,379.309 34.622,390.056 38.455,396.132C40.106,398.749 43.442,399.567 46.047,397.994C46.049,397.993 46.05,397.992 46.052,397.991C47.276,397.252 48.788,397.248 50.015,397.981C51.243,398.714 52,400.072 52,401.542C52,421.359 52,477.137 52,500.974C52,507.064 56.756,512 62.624,512C95.962,512 197.962,512 226.065,512C227.984,512 229.824,511.209 231.181,509.801C232.538,508.392 233.3,506.482 233.3,504.491C233.3,482.768 233.3,421.4 233.3,421.4C233.3,408.6 243.1,398.7 256,398.7C268.8,398.7 278.7,408.5 278.7,421.4L278.7,504.952C278.7,506.821 279.415,508.614 280.689,509.936C281.963,511.257 283.69,512 285.491,512C313.903,512 423.124,512 452.621,512C454.578,512 456.455,511.193 457.839,509.757C459.223,508.321 460,506.373 460,504.342C460,483.051 460,423.318 460,402.043C460,400.47 460.81,399.017 462.124,398.233C463.438,397.448 465.056,397.452 466.366,398.244C466.367,398.244 466.368,398.245 466.369,398.246C468.741,399.678 471.778,398.933 473.281,396.55C477.35,390.1 485.138,377.756 490.118,369.863C491.317,367.962 491.72,365.635 491.234,363.419C490.748,361.203 489.414,359.287 487.539,358.112C464.998,343.983 395.774,300.594 375.154,287.669C371.521,285.392 369.3,281.307 369.3,276.902L369.3,144.748C369.3,142.712 368.625,140.737 367.389,139.155C365.978,137.347 364.3,135.2 364.3,135.2L273.7,22C273.7,22 268.866,15.991 264.25,10.255ZM248.494,81.583C250.347,79.266 253.098,77.926 256,77.926C258.902,77.926 261.653,79.266 263.506,81.583C278.249,100.012 310.449,140.261 320.757,153.146C322.853,155.766 324,159.064 324,162.469L324,243.14C324,245.685 322.682,248.034 320.549,249.291C318.416,250.547 315.797,250.517 313.692,249.213C297.517,239.19 268,220.9 268,220.9C268,220.9 264.708,218.76 261.573,216.722C258.164,214.507 253.836,214.507 250.427,216.722C247.292,218.76 244,220.9 244,220.9C244,220.9 211.38,241.113 195.932,250.685C194.312,251.689 192.297,251.712 190.655,250.745C189.014,249.778 188,247.971 188,246.012C188,224.558 188,173.529 188,160.35C188,158.314 188.686,156.343 189.939,154.777C198.486,144.093 233.058,100.878 248.494,81.583ZM256,149.4C243.5,149.4 233.3,159.6 233.3,172.1C233.3,184.6 243.5,194.8 256,194.8C268.5,194.8 278.7,184.6 278.7,172.1C278.7,159.6 268.5,149.4 256,149.4ZM250.482,270.448C253.877,268.327 258.123,268.327 261.518,270.448C285.982,285.734 384.527,347.309 409.052,362.633C412.495,364.785 414.6,368.65 414.6,372.821C414.6,390.425 414.6,437.889 414.6,457.76C414.6,460.131 413.692,462.405 412.077,464.082C410.462,465.758 408.271,466.7 405.986,466.7C389.089,466.7 351.692,466.7 333.847,466.7C328.409,466.7 324,462.125 324,456.48C324,443.12 324,421.4 324,421.4C324,384.1 293.3,353.4 256,353.4C218.7,353.4 188,384.1 188,421.4L188,459.159C188,461.159 187.234,463.077 185.872,464.491C184.509,465.905 182.661,466.7 180.734,466.7C163.82,466.7 121.959,466.7 104.858,466.7C102.88,466.7 100.983,465.884 99.584,464.433C98.186,462.981 97.4,461.012 97.4,458.959C97.4,439.651 97.4,389.66 97.4,372.215C97.4,368.42 99.315,364.903 102.448,362.946C126.101,348.167 225.848,285.84 250.482,270.448Z" style="fill:rgb(221,133,0);fill-rule:nonzero;"/>
    </g>
</svg>
