<?xml version="1.0" encoding="UTF-8" standalone="no"?>
<!DOCTYPE svg PUBLIC "-//W3C//DTD SVG 1.1//EN" "http://www.w3.org/Graphics/SVG/1.1/DTD/svg11.dtd">
<svg width="100%" height="100%" viewBox="0 0 600 400" version="1.1" xmlns="http://www.w3.org/2000/svg" xmlns:xlink="http://www.w3.org/1999/xlink" xml:space="preserve" xmlns:serif="http://www.serif.com/" style="fill-rule:evenodd;clip-rule:evenodd;stroke-linejoin:round;stroke-miterlimit:2;">
    <rect x="-1.112" y="1.025" width="601.233" height="400.417" style="fill:rgb(204,204,204);" />
    <g transform="matrix(6.90088,0,0,6.86604,121.293,-0.195917)">
        <path d="M50.64,48.29C45.33,54.249 37.6,58 29,58C20.483,58 12.819,54.321 7.511,48.465L34.935,48.465L34.935,48.29L50.64,48.29Z" style="fill:rgb(255,157,15);" />
    </g>
    <g transform="matrix(6.90088,0,0,6.86604,121.293,-0.195917)">
        <path d="M31.698,39.009C29.809,38.493 28.419,38.001 27.575,37.674C24.499,36.489 23.696,35.633 23.493,35.226C23.485,35.212 23.479,35.198 23.472,35.184L23.446,31.409L10.302,31.561L10.278,35.184C10.271,35.198 10.265,35.212 10.258,35.226C10.054,35.633 9.253,36.489 6.175,37.678C5.309,38.01 3.865,38.52 1.916,39.05L1.805,39.083C0.638,35.943 0,32.545 0,29C0,12.994 12.994,0 29,0C45.006,0 58,12.994 58,29C58,34.096 56.683,38.887 54.369,43.049C54.067,41.896 53.208,40.947 52.045,40.56L51.948,40.531C50.325,40.089 49.136,39.668 48.42,39.392C45.882,38.412 45.221,37.705 45.053,37.372C45.046,37.361 45.043,37.347 45.038,37.337L45.015,34.223L34.175,34.347L34.153,37.337C34.148,37.347 34.143,37.361 34.137,37.372C33.991,37.66 33.477,38.228 31.698,39.009Z" style="fill:rgb(255,157,15);" />
    </g>
    <g transform="matrix(0.778991,0,0,0.777339,98.4989,-49.9847)">
        <path d="M380.019,202.599C256.757,202.927 311.444,345.586 269.381,380.96C269.381,380.96 292.037,401.928 380.019,401.928C468,401.928 490.671,380.96 490.671,380.96C448.61,345.587 503.28,202.928 380.019,202.599Z" style="fill:rgb(52,58,66);fill-rule:nonzero;" />
    </g>
    <g transform="matrix(0.778991,0,0,0.777339,98.4989,-49.9847)">
        <path d="M310.062,408.611L311.444,409.005L312.46,409.317C328.195,414.567 338.74,429.317 338.74,445.941L338.74,490.583L248.071,490.583L248.071,452.49C248.071,438.772 256.789,426.615 269.741,422.303L270.725,422.022C284.959,418.147 295.506,414.429 301.85,411.991C304.881,410.824 307.609,409.701 310.062,408.611Z" style="fill:rgb(236,135,192);" />
    </g>
    <g transform="matrix(0.778991,0,0,0.777339,98.4989,-49.9847)">
        <path d="M310.062,408.611C325.829,401.71 330.378,396.69 331.676,394.148C331.723,394.055 331.77,393.93 331.817,393.836L332.005,367.431L428.034,366.337L428.237,393.836C428.284,393.929 428.316,394.054 428.378,394.148C429.861,397.086 435.721,403.335 458.204,411.991C464.548,414.428 475.079,418.147 489.453,422.053L490.312,422.303C500.615,425.729 508.226,434.106 510.9,444.29C501.619,460.959 490.527,476.488 477.868,490.583L338.74,490.583L338.74,445.941C338.74,429.317 328.195,414.567 312.46,409.317L311.444,409.005L310.062,408.611Z" style="fill:rgb(236,135,192);" />
    </g>
    <g transform="matrix(0.778991,0,0,0.777339,98.4989,-49.9847)">
        <path d="M454.798,316.119C454.798,364.68 408.487,411.428 380.02,411.428C351.568,411.428 305.242,364.68 305.242,316.119C305.242,267.519 338.724,235.457 380.02,235.457C421.316,235.457 454.798,267.519 454.798,316.119Z" style="fill:rgb(234,198,187);fill-rule:nonzero;" />
    </g>
    <g transform="matrix(0.778991,0,0,0.777339,113.117,-48.7828)">
        <path d="M26.485,407.712L27.468,407.427C44.733,402.741 57.529,398.241 65.201,395.303C92.465,384.804 99.559,377.242 101.371,373.648C101.434,373.523 101.481,373.398 101.543,373.273L101.762,341.274L218.196,339.93L218.43,373.273C218.493,373.398 218.54,373.523 218.618,373.648C220.415,377.242 227.524,384.804 254.773,395.272C262.46,398.241 275.24,402.741 292.678,407.459L293.694,407.771C309.429,413.021 319.974,427.771 319.974,444.395L319.974,490.581L77.037,490.581C55.268,466.645 37.973,438.585 26.485,407.712Z" style="fill:rgb(93,156,236);" />
    </g>
    <g transform="matrix(0.778991,0,0,0.777339,115.797,-66.3965)">
        <path d="M250.649,279.026C250.649,337.962 194.495,394.585 159.98,394.585C125.481,394.585 69.327,337.962 69.327,279.026C69.327,220.13 109.919,181.256 159.98,181.256C210.056,181.256 250.649,220.13 250.649,279.026Z" style="fill:rgb(234,198,187);fill-rule:nonzero;" />
    </g>
    <g transform="matrix(0.778991,0,0,0.777339,118.738,-70.7941)">
        <path d="M218.415,170.6C202.978,156.631 151.292,139.476 99.747,170.6C73.639,186.349 54.639,255.925 54.639,255.925C54.639,255.925 105.559,284.776 171.854,253.597C211.524,234.926 210.634,244.706 221.962,261.706C228.696,271.783 250.649,279.025 250.649,279.025C250.649,279.025 267.742,215.255 218.415,170.6Z" style="fill:rgb(168,93,93);fill-rule:nonzero;" />
    </g>
    <g transform="matrix(0.778991,0,0,0.777339,98.4989,-49.9847)">
        <path d="M396.003,203.536L390.956,255.925C390.956,255.925 425.8,287.182 467.142,288.619L467.33,288.588C461.829,248.379 449.141,209.943 396.003,203.536Z" style="fill:rgb(67,74,84);fill-rule:nonzero;" />
    </g>
    <g transform="matrix(0.778991,0,0,0.777339,98.4989,-49.9847)">
        <path d="M432.299,216.083C419.894,207.693 403.066,202.662 380.02,202.6C302.96,202.803 295.445,258.629 290.367,309.088C364.145,305.056 432.283,216.083 432.299,216.083Z" style="fill:rgb(101,109,120);fill-rule:nonzero;" />
    </g>
</svg>
