<?xml version="1.0" encoding="UTF-8" standalone="no"?>
<!DOCTYPE svg PUBLIC "-//W3C//DTD SVG 1.1//EN" "http://www.w3.org/Graphics/SVG/1.1/DTD/svg11.dtd">
<svg width="100%" height="100%" viewBox="0 0 600 400" version="1.1" xmlns="http://www.w3.org/2000/svg" xmlns:xlink="http://www.w3.org/1999/xlink" xml:space="preserve" xmlns:serif="http://www.serif.com/" style="fill-rule:evenodd;clip-rule:evenodd;stroke-linejoin:round;stroke-miterlimit:2;">
    <g transform="matrix(7.05531,0,0,6.86454,101.689,0.711503)">
        <circle cx="29" cy="29" r="29" style="fill:rgb(37,174,136);" />
    </g>
    <g transform="matrix(7.05531,0,0,6.86454,102.048,0.670102)">
        <path d="M52.932,45.376C52.275,38.985 46.876,34 40.311,34L34.365,34C33.611,34 33,33.389 33,32.635L33,31.99C33,31.407 33.379,30.908 33.925,30.703C39.729,28.521 43.703,18.999 42.896,12.27C42.134,5.919 36.97,0.801 30.614,0.09C30.097,0.032 29.585,0.004 29.079,0.002C29.063,0.002 29.047,0.001 29.031,0.001C21.285,-0.016 15,6.258 15,14C15,20.024 18.807,28.755 24.145,30.729C24.668,30.922 25,31.442 25,32L25,32.635C25,33.389 24.389,34 23.635,34L17.689,34C11.124,34 5.725,38.985 5.068,45.376C10.293,52.998 19.061,58 29,58C38.939,58 47.707,52.998 52.932,45.376Z" style="fill:rgb(251,206,157);fill-rule:nonzero;" />
    </g>
    <g transform="matrix(7.05531,0,0,6.86454,102.048,0.670102)">
        <path d="M33.492,6.61C37.207,7.631 40.705,9.916 42.945,12.932C42.929,12.711 42.922,12.485 42.896,12.269C42.134,5.919 36.97,0.801 30.614,0.09C30.097,0.032 29.585,0.004 29.079,0.002C29.063,0.002 29.047,0.001 29.031,0.001C22.111,-0.014 16.371,4.996 15.223,11.584L15.228,11.584C15.407,11.836 15.582,12.091 15.773,12.334C15.843,12.247 15.914,12.161 15.986,12.076C17.986,9.696 21.327,9.145 24.169,10.405C25.034,10.787 25.992,11 27,11C29.942,11 32.456,9.182 33.492,6.61Z" style="fill:rgb(107,91,75);fill-rule:nonzero;" />
    </g>
    <g transform="matrix(7.05531,0,0,6.86454,102.048,0.670102)">
        <path d="M52.932,45.376C52.275,38.985 46.876,34 40.311,34L37,34L29,42L21,34L17.689,34C11.124,34 5.725,38.985 5.068,45.376C10.293,52.998 19.061,58 29,58C38.939,58 47.707,52.998 52.932,45.376Z" style="fill:rgb(85,96,128);fill-rule:nonzero;" />
    </g>
    <g transform="matrix(7.05531,0,0,6.86454,102.048,0.670102)">
        <path d="M43,54.392C43.685,54.013 44.35,53.603 45,53.172L45,47L43,47L43,54.392Z" style="fill:rgb(66,74,96);fill-rule:nonzero;" />
    </g>
    <g transform="matrix(7.05531,0,0,6.86454,102.048,0.670102)">
        <path d="M15,54.392L15,47L13,47L13,53.172C13.65,53.603 14.315,54.013 15,54.392Z" style="fill:rgb(66,74,96);fill-rule:nonzero;" />
    </g>
</svg>
