<?xml version="1.0" encoding="UTF-8" standalone="no"?>
<!DOCTYPE svg PUBLIC "-//W3C//DTD SVG 1.1//EN" "http://www.w3.org/Graphics/SVG/1.1/DTD/svg11.dtd">
<svg width="100%" height="100%" viewBox="0 0 600 400" version="1.1" xmlns="http://www.w3.org/2000/svg" xmlns:xlink="http://www.w3.org/1999/xlink" xml:space="preserve" xmlns:serif="http://www.serif.com/" style="fill-rule:evenodd;clip-rule:evenodd;stroke-linejoin:round;stroke-miterlimit:2;">
    <g transform="matrix(1,0,0,1,254.089,154.089)">
        <g transform="matrix(4.2634,0,0,4.30918,-140.122,-151.932)">
            <path d="M45.912,91.823C71.198,91.823 91.823,71.199 91.823,45.912C91.823,20.625 71.198,0.001 45.912,0.001C20.625,0.001 0,20.625 0,45.912C0,71.199 20.625,91.823 45.912,91.823Z" style="fill:rgb(73,113,147);" />
        </g>
        <g transform="matrix(4.2634,0,0,4.30918,-140.122,-151.932)">
            <path d="M36.564,20.212C39.664,17.333 56.273,15.119 62.918,25.971C69.562,36.823 66.019,34.165 69.783,41.03C73.547,47.895 73.547,48.781 70.004,53.653C66.461,58.525 62.696,62.29 65.796,65.612C68.897,68.933 70.226,70.705 67.125,75.355C65.196,78.248 68.579,81.398 70.4,84.751C63.312,89.23 54.916,91.823 45.912,91.823C38.514,91.823 31.524,90.071 25.335,86.963C25.417,82.885 27.042,79.765 25.271,77.35C22.834,74.028 19.07,70.705 25.271,66.055C28.866,63.359 23.667,60.811 21.16,56.144C18.312,50.845 20.11,44.185 21.506,42.138C24.826,37.265 24.163,18.884 36.564,20.212Z" style="fill:rgb(213,108,43);" />
        </g>
        <g transform="matrix(4.2634,0,0,4.30918,-140.122,-151.932)">
            <path d="M66.481,78.073L65.97,87.22C59.909,90.167 53.105,91.823 45.912,91.823C38.698,91.823 31.874,90.158 25.801,87.193L25.291,78.073L66.481,78.073Z" style="fill:rgb(255,208,110);" />
        </g>
        <g transform="matrix(4.2634,0,0,4.30918,-140.122,-151.932)">
            <path d="M61.422,84.857L62.019,88.916C66.286,87.317 70.25,85.102 73.806,82.377C70.81,75.949 60.227,76.728 61.422,84.857Z" style="fill:rgb(255,208,110);" />
        </g>
        <g transform="matrix(4.2634,0,0,4.30918,-140.122,-151.932)">
            <path d="M30.027,84.857L29.45,88.781C25.209,87.151 21.27,84.912 17.743,82.168C20.87,75.966 31.209,76.818 30.027,84.857Z" style="fill:rgb(255,208,110);" />
        </g>
        <g transform="matrix(4.2634,0,0,4.30918,-140.122,-151.932)">
            <path d="M54.607,26.548C58.676,30.186 60.882,33.767 60.022,38.277C59.162,42.789 60.126,46.077 65.26,48.263C70.395,50.45 68.727,51.196 68.215,56.346C67.898,59.552 70.857,62.086 74.363,61.662C75.026,61.582 70.552,60.529 70.736,57.281C71.031,52.052 75.357,48.645 70.305,44.326C65.252,40.009 64.78,38.584 65.73,35.379C66.679,32.174 64.161,27.485 59.034,23.146C52.829,17.896 50.538,22.91 54.607,26.548Z" style="fill:rgb(213,108,43);" />
        </g>
        <g transform="matrix(4.2634,0,0,4.30918,-140.122,-151.932)">
            <path d="M34.195,46.003C30.419,49.944 28.473,53.407 29.679,57.839C30.884,62.271 30.178,65.623 25.227,68.199C20.276,70.774 21.997,71.389 22.904,76.486C23.431,79.453 21.055,82.054 17.858,82.254C17.735,82.159 17.611,82.064 17.489,81.969C18.427,81.408 20.786,80.022 20.463,77.614C19.765,72.424 15.189,69.36 19.894,64.666C24.598,59.97 23.063,59.217 21.869,56.096C20.676,52.973 24.642,47.337 29.498,42.678C59.155,14.217 37.972,42.062 34.195,46.003Z" style="fill:rgb(213,108,43);" />
        </g>
        <g transform="matrix(4.2634,0,0,4.30918,-140.122,-151.932)">
            <path d="M36.635,26.548C32.566,30.186 30.36,33.767 31.22,38.277C32.08,42.789 31.116,46.077 25.982,48.263C20.847,50.45 22.516,51.196 23.027,56.346C23.345,59.552 20.385,62.086 16.88,61.662C16.217,61.582 20.689,60.529 20.507,57.281C20.211,52.052 15.885,48.645 20.938,44.326C25.99,40.009 26.463,38.584 25.513,35.379C24.563,32.174 27.081,27.485 32.209,23.146C38.413,17.896 40.704,22.91 36.635,26.548Z" style="fill:rgb(213,108,43);" />
        </g>
        <g transform="matrix(4.2634,0,0,4.30918,-140.122,-151.932)">
            <path d="M58.269,45.05C61.877,49.145 63.676,52.686 62.287,57.064C60.896,61.441 61.463,64.821 66.303,67.6C71.142,70.38 69.397,70.924 68.278,75.977C67.582,79.123 70.219,81.991 73.751,81.986C74.419,81.985 70.103,80.41 70.67,77.207C71.584,72.05 76.284,69.18 71.78,64.292C67.276,59.404 68.841,58.717 70.165,55.647C71.488,52.577 67.759,46.781 63.103,41.923C34.657,12.25 54.66,40.954 58.269,45.05Z" style="fill:rgb(213,108,43);" />
        </g>
        <g transform="matrix(4.2634,0,0,4.30918,-140.122,-151.932)">
            <path d="M53.874,57.627L53.874,78.19C49.48,83.965 42.291,83.766 37.897,78.19L37.897,57.627C37.897,47.059 53.874,47.06 53.874,57.627Z" style="fill:rgb(251,217,189);" />
        </g>
        <g transform="matrix(4.2634,0,0,4.30918,-140.122,-151.932)">
            <path d="M53.874,57.627L53.874,70.731C50.852,73.096 47.937,74.421 45.886,74.421C43.834,74.421 40.92,73.097 37.898,70.731L37.898,57.627C37.897,47.059 53.874,47.059 53.874,57.627Z" style="fill:rgb(236,194,160);" />
        </g>
        <g transform="matrix(4.2634,0,0,4.30918,-140.122,-151.932)">
            <path d="M45.886,71.167C40.685,71.167 29.696,62.989 26.3,51.277C22.87,39.451 29.329,22.488 45.886,22.488C62.444,22.488 68.903,39.45 65.472,51.277C62.075,62.989 51.088,71.167 45.886,71.167Z" style="fill:rgb(251,217,189);" />
        </g>
        <g transform="matrix(4.2634,0,0,4.30918,-140.122,-151.932)">
            <path d="M39.62,59.376C42.271,56.81 44.339,58.734 45.886,58.734C47.434,58.734 49.501,56.81 52.152,59.376C50.728,66.142 41.51,66.351 39.62,59.376Z" style="fill:rgb(255,56,106);" />
        </g>
        <g transform="matrix(4.2634,0,0,4.30918,-140.122,-151.932)">
            <path d="M39.621,59.376C42.271,56.81 44.338,58.734 45.886,58.734C47.434,58.734 49.501,56.81 52.152,59.376C48.099,61.373 42.349,60.439 39.621,59.376Z" style="fill:rgb(200,32,74);" />
        </g>
        <g transform="matrix(-1.68234,-3.95927,3.91721,-1.7004,-190.333,255.817)">
            <ellipse cx="25.282" cy="51.191" rx="5.702" ry="3.297" style="fill:rgb(251,217,189);" />
        </g>
        <g transform="matrix(1.68234,-3.95927,3.91721,1.7004,-167.864,246.693)">
            <ellipse cx="66.95" cy="51.191" rx="5.702" ry="3.297" style="fill:rgb(251,217,189);" />
        </g>
        <g transform="matrix(4.2634,0,0,4.30918,-140.122,-151.932)">
            <path d="M37.337,27.753C38.612,33.95 45.173,37.231 51.37,38.143C57.566,39.054 63.034,39.053 59.571,43.245C56.108,47.437 58.113,51.265 61.394,53.634C64.674,56.003 63.58,62.382 60.664,66.392C57.748,70.402 57.02,73.865 60.481,77.692C63.945,81.519 62.122,81.665 59.206,86.403C58.457,87.619 58.254,88.916 58.503,90.075C59.182,89.882 59.855,89.673 60.52,89.449C60.579,89.032 60.72,88.597 60.972,88.151C63.737,83.264 67.59,81.519 65.221,75.687C62.852,69.855 64.31,69.673 66.679,66.939C69.048,64.205 69.959,57.279 67.044,51.629C64.127,45.98 69.048,47.802 68.501,40.876C67.955,33.951 51.006,8.435 37.337,27.753Z" style="fill:rgb(213,108,43);" />
        </g>
        <g transform="matrix(4.2634,0,0,4.30918,-140.122,-151.932)">
            <path d="M48.259,22.521C43.991,24.992 29.246,39.328 27.585,44.334C25.923,49.341 27.648,53.441 28.651,57.121C25.058,56.223 16.139,16.007 48.259,22.521Z" style="fill:rgb(213,108,43);" />
        </g>
        <g transform="matrix(4.2634,0,0,4.30918,-140.122,-151.932)">
            <path d="M36.705,73.654L32.377,77.186L39.628,88.438L45.886,82.502L36.705,73.654Z" style="fill:rgb(178,77,31);" />
        </g>
        <g transform="matrix(4.2634,0,0,4.30918,-140.122,-151.932)">
            <path d="M55.248,73.564L59.758,77.368L52.144,88.438L45.886,82.502L55.248,73.564Z" style="fill:rgb(178,77,31);" />
        </g>
    </g>
</svg>
